<?xml version="1.0" encoding="UTF-8"?>
<svg version="1.1" xmlns="http://www.w3.org/2000/svg" width="907" height="903">
<path d="M0 0 C109.89 0 219.78 0 333 0 C333 10.23 333 20.46 333 31 C352.47 31 371.94 31 392 31 C392.33 40.9 392.66 50.8 393 61 C437.55 61.495 437.55 61.495 483 62 C483 71.57 483 81.14 483 91 C493.23 91 503.46 91 514 91 C514 151.06 514 211.12 514 273 C504.1 273 494.2 273 484 273 C484 282.9 484 292.8 484 303 C473.77 303 463.54 303 453 303 C453 313.23 453 323.46 453 334 C423.63 334 394.26 334 364 334 C364 343.9 364 353.8 364 364 C368.29 363.67 372.58 363.34 377 363 C379.74912683 362.91914333 382.49969038 362.86924621 385.25 362.875 C386.51328125 362.87242187 387.7765625 362.86984375 389.078125 362.8671875 C392 363 392 363 393 364 C393.08783542 366.21855264 393.10694609 368.43988496 393.09765625 370.66015625 C393.09515869 371.87582275 393.09266113 373.09148926 393.09008789 374.34399414 C393.07643188 376.67965454 393.07643188 376.67965454 393.0625 379.0625 C393.041875 383.991875 393.02125 388.92125 393 394 C402.9 394 412.8 394 423 394 C423 403.9 423 413.8 423 424 C393.63 424 364.26 424 334 424 C334 434.23 334 444.46 334 455 C234.34 455 134.68 455 32 455 C32 444.77 32 434.54 32 424 C21.77 424 11.54 424 1 424 C1 414.1 1 404.2 1 394 C0.01 394.33 -0.98 394.66 -2 395 C-4.06673906 395.01592966 -6.13426083 394.96615799 -8.19921875 394.87890625 C-9.40771484 394.83056641 -10.61621094 394.78222656 -11.86132812 394.73242188 C-13.12396484 394.67634766 -14.38660156 394.62027344 -15.6875 394.5625 C-16.96173828 394.51029297 -18.23597656 394.45808594 -19.54882812 394.40429688 C-22.69946039 394.27449555 -25.84978577 394.1395244 -29 394 C-30.02861712 387.25170225 -30.12976314 380.66256326 -30.09765625 373.84375 C-30.0962413 372.70087524 -30.09482635 371.55800049 -30.09336853 370.38049316 C-30.08780025 366.75363475 -30.07525362 363.12683955 -30.0625 359.5 C-30.0574809 357.0312509 -30.05291871 354.56250082 -30.04882812 352.09375 C-30.0386949 346.06245644 -30.01911327 340.03129844 -30 334 C-40.23 334 -50.46 334 -61 334 C-61 243.91 -61 153.82 -61 61 C-50.77 61 -40.54 61 -30 61 C-30 51.1 -30 41.2 -30 31 C-20.1 31 -10.2 31 0 31 C0 20.77 0 10.54 0 0 Z M393 152 C393 182.03 393 212.06 393 243 C406.86 243 420.72 243 435 243 C435 212.97 435 182.94 435 152 C421.14 152 407.28 152 393 152 Z " fill="#E9A950" transform="translate(247,335)"/>
<path d="M0 0 C19.47 0 38.94 0 59 0 C59.33 9.57 59.66 19.14 60 29 C104.55 29.495 104.55 29.495 150 30 C150 89.73 150 149.46 150 211 C140.1 211 130.2 211 120 211 C120 180.97 120 150.94 120 120 C100.2 120 80.4 120 60 120 C60 150.03 60 180.06 60 211 C73.86 211 87.72 211 102 211 C102 211.33 102 211.66 102 212 C87.81 212 73.62 212 59 212 C59 181.64 59 151.28 59 120 C39.86 120 20.72 120 1 120 C1 159.93 1 199.86 1 241 C-8.9 241 -18.8 241 -29 241 C-29 260.8 -29 280.6 -29 301 C-38.57 301 -48.14 301 -58 301 C-58 311.23 -58 321.46 -58 332 C-148.75 332 -239.5 332 -333 332 C-333 321.77 -333 311.54 -333 301 C-322.44 301 -311.88 301 -301 301 C-301 241.27 -301 181.54 -301 120 C-311.56 120 -322.12 120 -333 120 C-333 169.5 -333 219 -333 270 C-342.24 270 -351.48 270 -361 270 C-361 243 -361 216 -361 189 C-361.16251975 188.26595098 -361.3250395 187.53190195 -361.49248409 186.77560902 C-362.06279653 183.65656521 -362.12285604 180.76151456 -362.12025452 177.59025574 C-362.12162918 176.29601685 -362.12300385 175.00177795 -362.12442017 173.6683197 C-362.12088146 172.24136329 -362.11724666 170.81440712 -362.11352539 169.38745117 C-362.11324321 167.87934369 -362.11340186 166.37123607 -362.1139679 164.86312866 C-362.11425465 160.7747001 -362.10837756 156.68630091 -362.10139394 152.59787917 C-362.09514017 148.32309223 -362.094555 144.0483046 -362.09336853 139.77351379 C-362.09026119 131.68112529 -362.08205583 123.58875031 -362.07201904 115.49636775 C-362.06083938 106.28240236 -362.05534278 97.06843633 -362.05032361 87.85446584 C-362.03987273 68.90296801 -362.02153465 49.9514887 -362 31 C-352.76 31 -343.52 31 -334 31 C-333.67 50.8 -333.34 70.6 -333 91 C-326.379375 91.165 -319.75875 91.33 -312.9375 91.5 C-309.85329712 91.57831055 -309.85329712 91.57831055 -306.70678711 91.65820312 C-296.46724353 91.91117073 -286.24272962 92.05222552 -276 92 C-276 101.57 -276 111.14 -276 121 C-204.39 121 -132.78 121 -59 121 C-59 110.77 -59 100.54 -59 90 C-39.2 90 -19.4 90 1 90 C1 70.53 1 51.06 1 31 C10.24 31 19.48 31 29 31 C29.33 30.67 29.66 30.34 30 30 C20.1 30 10.2 30 0 30 C0 39.24 0 48.48 0 58 C-9.57 58 -19.14 58 -29 58 C-29 48.43 -29 38.86 -29 29 C-19.43 29 -9.86 29 0 29 C0 19.43 0 9.86 0 0 Z " fill="#FDD88E" transform="translate(580,367)"/>
<path d="M0 0 C109.89 0 219.78 0 333 0 C333 10.23 333 20.46 333 31 C352.47 31 371.94 31 392 31 C392 31.33 392 31.66 392 32 C372.53 32 353.06 32 333 32 C333 41.57 333 51.14 333 61 C323.43 61 313.86 61 304 61 C304 70.57 304 80.14 304 90 C313.57 90 323.14 90 333 90 C333 80.76 333 71.52 333 62 C342.9 62 352.8 62 363 62 C363 71.57 363 81.14 363 91 C362.67 91 362.34 91 362 91 C362 81.76 362 72.52 362 63 C352.76 63 343.52 63 334 63 C334 82.47 334 101.94 334 122 C314.2 122 294.4 122 274 122 C274 132.23 274 142.46 274 153 C202.39 153 130.78 153 57 153 C57 143.43 57 133.86 57 124 C52.6378125 124.2784375 52.6378125 124.2784375 48.1875 124.5625 C37.50673487 125.12985223 26.87116839 124.93292238 16.1875 124.625 C15.39362885 124.60357941 14.59975769 124.58215881 13.78182983 124.56008911 C11.51445516 124.49699496 9.24749434 124.4260695 6.98046875 124.3515625 C6.28977295 124.33166763 5.59907715 124.31177277 4.88745117 124.29127502 C0.11621854 124.11621854 0.11621854 124.11621854 -1 123 C-1.09386381 121.1281906 -1.11743804 119.2528194 -1.11352539 117.37866211 C-1.11344986 116.17749252 -1.11337433 114.97632294 -1.11329651 113.73875427 C-1.10813522 112.4314888 -1.10297394 111.12422333 -1.09765625 109.77734375 C-1.09579198 108.43355868 -1.09436812 107.08977293 -1.09336853 105.74598694 C-1.08954402 102.20317723 -1.07971432 98.6604083 -1.06866455 95.11761475 C-1.05844899 91.50484784 -1.0538159 87.89207416 -1.04882812 84.27929688 C-1.03862218 77.18616187 -1.01905051 70.09313893 -1 63 C-10.24 63 -19.48 63 -29 63 C-28.505 67.455 -28.505 67.455 -28 72 C-27.91955862 74.24521935 -27.87784636 76.49224775 -27.87974548 78.73890686 C-27.87837082 80.00498779 -27.87699615 81.27106873 -27.87557983 82.57551575 C-27.87911755 83.95016504 -27.88275234 85.32481409 -27.88647461 86.69946289 C-27.88675713 88.16875201 -27.88659747 89.63804128 -27.8860321 91.10733032 C-27.88574668 95.07155952 -27.89160206 99.03575809 -27.89860606 102.99998021 C-27.90488218 107.15195766 -27.90544676 111.3039359 -27.90663147 115.45591736 C-27.90973227 123.30734431 -27.91792872 131.15875724 -27.92798096 139.01017803 C-27.93918104 147.95338273 -27.94466234 156.89658812 -27.94967639 165.83979809 C-27.96011244 184.22653999 -27.97768755 202.61326887 -28 221 C-27.34 221.33 -26.68 221.66 -26 222 C-26.16371094 222.69125977 -26.32742187 223.38251953 -26.49609375 224.09472656 C-27.0506662 227.29211615 -27.09560557 230.23910945 -27.0625 233.484375 C-27.05412109 234.7935791 -27.04574219 236.1027832 -27.03710938 237.45166016 C-27.03090576 238.15091614 -27.02470215 238.85017212 -27.01831055 239.57061768 C-26.89486645 254.26334559 -27.11570594 268.93735847 -27.5 283.625 C-27.52400879 284.54583374 -27.54801758 285.46666748 -27.57275391 286.41540527 C-27.70943514 291.61045434 -27.85381454 296.80519523 -28 302 C-18.76 302 -9.52 302 0 302 C0 252.5 0 203 0 152 C10.56 152 21.12 152 32 152 C32 211.73 32 271.46 32 333 C11.87 333 -8.26 333 -29 333 C-29 343.23 -29 353.46 -29 364 C-29.33 364 -29.66 364 -30 364 C-30 354.1 -30 344.2 -30 334 C-40.23 334 -50.46 334 -61 334 C-61 243.91 -61 153.82 -61 61 C-50.77 61 -40.54 61 -30 61 C-30 51.1 -30 41.2 -30 31 C-20.1 31 -10.2 31 0 31 C0 20.77 0 10.54 0 0 Z " fill="#FCF0C5" transform="translate(247,335)"/>
<path d="M0 0 C89.76 0 179.52 0 272 0 C272 9.9 272 19.8 272 30 C281.9 30 291.8 30 302 30 C302 40.23 302 50.46 302 61 C282.53 61 263.06 61 243 61 C243 70.9 243 80.8 243 91 C172.05 91 101.1 91 28 91 C28 81.1 28 71.2 28 61 C8.53 61 -10.94 61 -31 61 C-31 50.77 -31 40.54 -31 30 C-20.77 30 -10.54 30 0 30 C0 20.1 0 10.2 0 0 Z " fill="#4C2C1E" transform="translate(278,396)"/>
<path d="M0 0 C10.23 0 20.46 0 31 0 C31 60.06 31 120.12 31 182 C21.1 182 11.2 182 1 182 C1 191.9 1 201.8 1 212 C-9.23 212 -19.46 212 -30 212 C-30 222.23 -30 232.46 -30 243 C-59.37 243 -88.74 243 -119 243 C-119 252.9 -119 262.8 -119 273 C-128.9 273 -138.8 273 -149 273 C-149 262.77 -149 252.54 -149 242 C-139.1 242 -129.2 242 -119 242 C-119 232.1 -119 222.2 -119 212 C-109.76 212 -100.52 212 -91 212 C-91 202.1 -91 192.2 -91 182 C-100.24 182 -109.48 182 -119 182 C-119 142.07 -119 102.14 -119 61 C-109.76 61 -100.52 61 -91 61 C-91 91.36 -91 121.72 -91 153 C-76.81 153 -62.62 153 -48 153 C-48 122.64 -48 92.28 -48 61 C-42.06 61 -36.12 61 -30 61 C-30 91.03 -30 121.06 -30 152 C-20.1 152 -10.2 152 0 152 C0 101.84 0 51.68 0 0 Z " fill="#E9AB53" transform="translate(730,426)"/>
<path d="M0 0 C1.34989014 -0.00676758 1.34989014 -0.00676758 2.72705078 -0.01367188 C8.6881376 0.0006376 8.6881376 0.0006376 9.8125 1.125 C9.90033542 3.34355264 9.91944609 5.56488496 9.91015625 7.78515625 C9.90765869 9.00082275 9.90516113 10.21648926 9.90258789 11.46899414 C9.88893188 13.80465454 9.88893188 13.80465454 9.875 16.1875 C9.854375 21.116875 9.83375 26.04625 9.8125 31.125 C19.7125 31.125 29.6125 31.125 39.8125 31.125 C39.8125 41.025 39.8125 50.925 39.8125 61.125 C10.4425 61.125 -18.9275 61.125 -49.1875 61.125 C-49.1875 71.355 -49.1875 81.585 -49.1875 92.125 C-148.8475 92.125 -248.5075 92.125 -351.1875 92.125 C-351.1875 81.895 -351.1875 71.665 -351.1875 61.125 C-261.7575 61.125 -172.3275 61.125 -80.1875 61.125 C-80.1875 51.225 -80.1875 41.325 -80.1875 31.125 C-69.9575 31.125 -59.7275 31.125 -49.1875 31.125 C-49.1875 21.225 -49.1875 11.325 -49.1875 1.125 C-13.57560513 0.02804394 -13.57560513 0.02804394 0 0 Z " fill="#FDEAB8" transform="translate(630.1875,697.875)"/>
<path d="M0 0 C10.23 0 20.46 0 31 0 C31 20.79 31 41.58 31 63 C40.9 63 50.8 63 61 63 C61 72.9 61 82.8 61 93 C71.56 93 82.12 93 93 93 C93.33 103.23 93.66 113.46 94 124 C103.24 124 112.48 124 122 124 C122 133.9 122 143.8 122 154 C102.2 154 82.4 154 62 154 C62 144.1 62 134.2 62 124 C41.54 124 21.08 124 0 124 C0 113.77 0 103.54 0 93 C-10.23 93 -20.46 93 -31 93 C-31 72.54 -31 52.08 -31 31 C-21.1 31 -11.2 31 -1 31 C-1.03959728 21.17196975 -1.03959728 21.17196975 -1.09008789 11.34399414 C-1.09383423 9.52049438 -1.09383423 9.52049438 -1.09765625 7.66015625 C-1.10289307 6.40855713 -1.10812988 5.15695801 -1.11352539 3.86743164 C-1 1 -1 1 0 0 Z " fill="#FEF2C1" transform="translate(338,134)"/>
<path d="M0 0 C109.89 0 219.78 0 333 0 C333 10.23 333 20.46 333 31 C223.11 31 113.22 31 0 31 C0 20.77 0 10.54 0 0 Z " fill="#4C2C1F" transform="translate(247,335)"/>
<path d="M0 0 C9.9 0 19.8 0 30 0 C30 10.23 30 20.46 30 31 C20.1 31 10.2 31 0 31 C0 120.43 0 209.86 0 302 C-10.23 302 -20.46 302 -31 302 C-31 212.24 -31 122.48 -31 30 C-20.77 30 -10.54 30 0 30 C0 20.1 0 10.2 0 0 Z " fill="#4A2B1E" transform="translate(217,366)"/>
<path d="M0 0 C89.76 0 179.52 0 272 0 C272 9.9 272 19.8 272 30 C281.9 30 291.8 30 302 30 C302 30.33 302 30.66 302 31 C192.11 31 82.22 31 -31 31 C-31 30.67 -31 30.34 -31 30 C-20.77 30 -10.54 30 0 30 C0 20.1 0 10.2 0 0 Z " fill="#B45B21" transform="translate(278,396)"/>
<path d="M0 0 C89.43 0 178.86 0 271 0 C271 9.9 271 19.8 271 30 C181.57 30 92.14 30 0 30 C0 20.1 0 10.2 0 0 Z " fill="#4F2F21" transform="translate(279,729)"/>
<path d="M0 0 C10.56 0 21.12 0 32 0 C32 59.73 32 119.46 32 181 C11.87 181 -8.26 181 -29 181 C-29 191.23 -29 201.46 -29 212 C-29.33 212 -29.66 212 -30 212 C-30 202.1 -30 192.2 -30 182 C-40.23 182 -50.46 182 -61 182 C-61 181.67 -61 181.34 -61 181 C-50.77 181 -40.54 181 -30 181 C-30.01160156 178.00035156 -30.02320313 175.00070312 -30.03515625 171.91015625 C-30.1111906 145.68380742 -29.92810332 119.47229229 -29.5 93.25 C-29.48804218 92.51725483 -29.47608437 91.78450966 -29.46376419 91.02956009 C-29.3160974 82.01958532 -29.16151416 73.00973782 -29 64 C-28.67 64 -28.34 64 -28 64 C-28 65.65 -28 67.3 -28 69 C-27.01 69.495 -27.01 69.495 -26 70 C-26.16371094 70.69125977 -26.32742187 71.38251953 -26.49609375 72.09472656 C-27.0506662 75.29211615 -27.09560557 78.23910945 -27.0625 81.484375 C-27.05412109 82.7935791 -27.04574219 84.1027832 -27.03710938 85.45166016 C-27.03090576 86.15091614 -27.02470215 86.85017212 -27.01831055 87.57061768 C-26.89486645 102.26334559 -27.11570594 116.93735847 -27.5 131.625 C-27.52400879 132.54583374 -27.54801758 133.46666748 -27.57275391 134.41540527 C-27.70943514 139.61045434 -27.85381454 144.80519523 -28 150 C-18.76 150 -9.52 150 0 150 C0 100.5 0 51 0 0 Z " fill="#FDEDB9" transform="translate(247,487)"/>
<path d="M0 0 C30.03 0 60.06 0 91 0 C91 49.83 91 99.66 91 151 C81.1 151 71.2 151 61 151 C60.86783938 139.63594394 60.73714804 128.27187334 60.60884857 116.90777302 C60.54918079 111.62755115 60.48893792 106.34733731 60.42724609 101.06713867 C60.36742177 95.94477599 60.30928362 90.8223964 60.25218201 85.70000267 C60.23042989 83.77299539 60.20813032 81.84599419 60.18519592 79.91900063 C59.99173009 63.61063107 60 47.31170788 60 31 C40.2 31 20.4 31 0 31 C0 20.77 0 10.54 0 0 Z " fill="#FDE8AE" transform="translate(639,427)"/>
<path d="M0 0 C9.9 0 19.8 0 30 0 C30 59.73 30 119.46 30 181 C20.1 181 10.2 181 0 181 C0 121.27 0 61.54 0 0 Z " fill="#4A2B1F" transform="translate(730,426)"/>
<path d="M0 0 C19.47 0 38.94 0 59 0 C59.495 14.355 59.495 14.355 60 29 C104.55 29.495 104.55 29.495 150 30 C150 39.57 150 49.14 150 59 C110.73 59 71.46 59 31 59 C31 49.1 31 39.2 31 29 C20.77 29 10.54 29 0 29 C0 19.43 0 9.86 0 0 Z " fill="#482A1E" transform="translate(580,367)"/>
<path d="M0 0 C9.24 0 18.48 0 28 0 C28 30.36 28 60.72 28 92 C42.19 92 56.38 92 71 92 C71 101.57 71 111.14 71 121 C47.57 121 24.14 121 0 121 C0 81.07 0 41.14 0 0 Z " fill="#4B2C20" transform="translate(611,487)"/>
<path d="M0 0 C9.57 0 19.14 0 29 0 C29 10.23 29 20.46 29 31 C39.56 31 50.12 31 61 31 C61 50.8 61 70.6 61 91 C50.77 91 40.54 91 30 91 C30 81.1 30 71.2 30 61 C28.515 61.495 28.515 61.495 27 62 C24.93326094 62.01592966 22.86573917 61.96615799 20.80078125 61.87890625 C19.59228516 61.83056641 18.38378906 61.78222656 17.13867188 61.73242188 C15.87603516 61.67634766 14.61339844 61.62027344 13.3125 61.5625 C12.03826172 61.51029297 10.76402344 61.45808594 9.45117188 61.40429688 C6.30053961 61.27449555 3.15021423 61.1395244 0 61 C-0.78052009 55.49299713 -1.15814533 50.12854768 -1.125 44.5625 C-1.12209961 43.33515137 -1.12209961 43.33515137 -1.11914062 42.08300781 C-1.02845552 28.05200687 -0.47077066 14.02224026 0 0 Z " fill="#503022" transform="translate(218,668)"/>
<path d="M0 0 C29.04 0 58.08 0 88 0 C88.33 10.23 88.66 20.46 89 31 C59.63 31 30.26 31 0 31 C0 40.9 0 50.8 0 61 C-9.9 61 -19.8 61 -30 61 C-30 50.77 -30 40.54 -30 30 C-20.1 30 -10.2 30 0 30 C0 20.1 0 10.2 0 0 Z " fill="#4D2E22" transform="translate(611,638)"/>
<path d="M0 0 C9.24 0 18.48 0 28 0 C28 9.9 28 19.8 28 30 C47.8 30 67.6 30 88 30 C88 39.57 88 49.14 88 59 C68.53 59 49.06 59 29 59 C29 89.03 29 119.06 29 150 C42.86 150 56.72 150 71 150 C71 150.33 71 150.66 71 151 C56.81 151 42.62 151 28 151 C28 120.64 28 90.28 28 59 C18.76 59 9.52 59 0 59 C0 39.53 0 20.06 0 0 Z " fill="#E8AB56" transform="translate(611,428)"/>
<path d="M0 0 C9.57 0 19.14 0 29 0 C29 30.03 29 60.06 29 91 C19.43 91 9.86 91 0 91 C0 60.97 0 30.94 0 0 Z " fill="#FDD585" transform="translate(701,487)"/>
<path d="M0 0 C5.61 0 11.22 0 17 0 C17 30.36 17 60.72 17 92 C11.39 92 5.78 92 0 92 C0 61.64 0 31.28 0 0 Z " fill="#512F22" transform="translate(682,487)"/>
<path d="M0 0 C19.8 0 39.6 0 60 0 C60 9.9 60 19.8 60 30 C99.27 30 138.54 30 179 30 C179 30.33 179 30.66 179 31 C167.61867492 31.13228411 156.23733074 31.2627782 144.85596085 31.39115143 C139.56786362 31.4508499 134.27977409 31.51110443 128.99169922 31.57275391 C123.86285669 31.63252449 118.73399785 31.69067257 113.60512543 31.74781799 C111.67450079 31.76959052 109.74388202 31.79189224 107.81327057 31.81480408 C91.87349143 32.00338017 75.94296453 32 60 32 C60 51.47 60 70.94 60 91 C57.69 91 55.38 91 53 91 C56.875 88 56.875 88 58 88 C58.33 59.29 58.66 30.58 59 1 C49.1 1 39.2 1 29 1 C29 10.24 29 19.48 29 29 C19.43 29 9.86 29 0 29 C0 19.43 0 9.86 0 0 Z " fill="#F5C57D" transform="translate(551,396)"/>
<path d="M0 0 C39.27 0 78.54 0 119 0 C119 0.33 119 0.66 119 1 C89.63 1 60.26 1 30 1 C30 10.9 30 20.8 30 31 C20.1 31 10.2 31 0 31 C0 20.77 0 10.54 0 0 Z " fill="#593B2F" transform="translate(581,668)"/>
<path d="M0 0 C10.56 0 21.12 0 32 0 C32 10.23 32 20.46 32 31 C21.44 31 10.88 31 0 31 C0 20.77 0 10.54 0 0 Z " fill="#EEB35D" transform="translate(247,668)"/>
<path d="M0 0 C10.23 0 20.46 0 31 0 C31 9.9 31 19.8 31 30 C20.77 30 10.54 30 0 30 C0 20.1 0 10.2 0 0 Z " fill="#FEEBB8" transform="translate(248,729)"/>
<path d="M0 0 C9.9 0 19.8 0 30 0 C30 9.24 30 18.48 30 28 C20.43 28 10.86 28 1 28 C1 38.56 1 49.12 1 60 C0.67 60 0.34 60 0 60 C0 50.1 0 40.2 0 30 C-10.23 30 -20.46 30 -31 30 C-31 29.67 -31 29.34 -31 29 C-20.77 29 -10.54 29 0 29 C0 19.43 0 9.86 0 0 Z " fill="#EAB464" transform="translate(217,639)"/>
<path d="M0 0 C9.9 0 19.8 0 30 0 C30.33 9.9 30.66 19.8 31 30 C20.77 30 10.54 30 0 30 C0 20.1 0 10.2 0 0 Z " fill="#FEF2BF" transform="translate(369,104)"/>
<path d="M0 0 C9.9 0 19.8 0 30 0 C30 9.9 30 19.8 30 30 C20.1 30 10.2 30 0 30 C0 20.1 0 10.2 0 0 Z " fill="#533224" transform="translate(551,699)"/>
<path d="M0 0 C9.57 0 19.14 0 29 0 C29 10.23 29 20.46 29 31 C19.43 31 9.86 31 0 31 C0 20.77 0 10.54 0 0 Z " fill="#4A2B1F" transform="translate(218,668)"/>
<path d="M0 0 C89.43 0 178.86 0 271 0 C271 9.9 271 19.8 271 30 C181.57 30 92.14 30 0 30 C0 20.1 0 10.2 0 0 Z M264.70711422 1.01561737 C263.77505655 1.01910077 262.84299888 1.02258416 261.88269705 1.02617311 C260.84672669 1.03006406 259.81075634 1.03395501 258.74339294 1.03796387 C257.10664859 1.0440892 257.10664859 1.0440892 255.43683869 1.05033827 C251.75012872 1.06413996 248.06341885 1.07796857 244.37670898 1.09179688 C241.74605307 1.10165057 239.11539714 1.11150263 236.48474121 1.12135315 C230.80548028 1.14262182 225.12621939 1.16390425 219.44695854 1.18519592 C211.2356076 1.21598043 203.02425659 1.24674436 194.81290556 1.27750319 C181.49188816 1.32740285 168.17087082 1.37731925 154.84985352 1.42724609 C141.90649417 1.47575745 128.9631348 1.52426097 116.01977539 1.57275391 C114.82387775 1.5772344 114.82387775 1.5772344 113.60382055 1.58180541 C109.60434416 1.59678961 105.60486777 1.61177365 101.60539138 1.62675762 C68.40359417 1.75114778 35.20179705 1.87556609 2 2 C2 10.91 2 19.82 2 29 C90.44 29 178.88 29 270 29 C270 19.76 270 10.52 270 1 C268.23569353 1 266.47140654 1.00900644 264.70711422 1.01561737 Z " fill="#3E1915" transform="translate(279,729)"/>
<path d="M0 0 C9.57 0 19.14 0 29 0 C29 9.9 29 19.8 29 30 C26.20299508 31.39850246 24.01884641 31.0101384 20.8984375 30.87890625 C19.08085937 30.80639648 19.08085937 30.80639648 17.2265625 30.73242188 C15.95554688 30.67634766 14.68453125 30.62027344 13.375 30.5625 C11.456875 30.48418945 11.456875 30.48418945 9.5 30.40429688 C6.333103 30.2743123 3.16649713 30.13933598 0 30 C-0.9051224 23.83654745 -1.15242331 17.85009125 -1.125 11.625 C-1.12886719 10.72394531 -1.13273438 9.82289063 -1.13671875 8.89453125 C-1.13542969 8.03472656 -1.13414062 7.17492187 -1.1328125 6.2890625 C-1.13168457 5.51256348 -1.13055664 4.73606445 -1.12939453 3.93603516 C-1 2 -1 2 0 0 Z " fill="#FDEBB8" transform="translate(218,699)"/>
<path d="M0 0 C9.9 0 19.8 0 30 0 C30 9.9 30 19.8 30 30 C15.15 29.505 15.15 29.505 0 29 C0 19.43 0 9.86 0 0 Z " fill="#C87531" transform="translate(581,638)"/>
<path d="M0 0 C9.9 0 19.8 0 30 0 C30 9.9 30 19.8 30 30 C15.15 29.505 15.15 29.505 0 29 C0 19.43 0 9.86 0 0 Z " fill="#4C2D21" transform="translate(700,608)"/>
<path d="M0 0 C9.24 0 18.48 0 28 0 C28 9.9 28 19.8 28 30 C18.76 30 9.52 30 0 30 C0 20.1 0 10.2 0 0 Z " fill="#BA672D" transform="translate(611,608)"/>
<path d="M0 0 C9.9 0 19.8 0 30 0 C30 9.24 30 18.48 30 28 C20.1 28 10.2 28 0 28 C0 18.76 0 9.52 0 0 Z " fill="#FBC67C" transform="translate(247,397)"/>
<path d="M0 0 C9.57 0 19.14 0 29 0 C29 8.91 29 17.82 29 27 C19.43 27 9.86 27 0 27 C0 18.09 0 9.18 0 0 Z " fill="#7B3A1C" transform="translate(249,428)"/>
<path d="M0 0 C9.24 0 18.48 0 28 0 C28.33 8.91 28.66 17.82 29 27 C19.43 27 9.86 27 0 27 C0 18.09 0 9.18 0 0 Z " fill="#75381D" transform="translate(550,428)"/>
<path d="M0 0 C109.89 0 219.78 0 333 0 C333 0.66 333 1.32 333 2 C223.77 2 114.54 2 2 2 C2 11.57 2 21.14 2 31 C1.34 31 0.68 31 0 31 C0 20.77 0 10.54 0 0 Z " fill="#6A6462" transform="translate(247,335)"/>
<path d="M0 0 C19.8 0 39.6 0 60 0 C60 9.9 60 19.8 60 30 C130.95 30 201.9 30 275 30 C275 30.33 275 30.66 275 31 C203.39 31 131.78 31 58 31 C58 21.43 58 11.86 58 2 C53.6378125 2.2784375 53.6378125 2.2784375 49.1875 2.5625 C33.13358307 3.42732322 17.05162461 2.6034754 1 2 C0.67 1.34 0.34 0.68 0 0 Z " fill="#FDFEBA" transform="translate(246,457)"/>
<path d="M0 0 C0.33 0 0.66 0 1 0 C1 60.06 1 120.12 1 182 C-8.9 182 -18.8 182 -29 182 C-29 191.9 -29 201.8 -29 212 C-29.33 212 -29.66 212 -30 212 C-30 202.1 -30 192.2 -30 182 C-39.9 182 -49.8 182 -60 182 C-60 191.57 -60 201.14 -60 211 C-50.43 211 -40.86 211 -31 211 C-31 211.33 -31 211.66 -31 212 C-40.57 212 -50.14 212 -60 212 C-60 221.57 -60 231.14 -60 241 C-60.33 241 -60.66 241 -61 241 C-61.14586601 235.66968344 -61.2880662 230.3392844 -61.42724609 225.00878906 C-61.47480506 223.20537851 -61.52326948 221.40199156 -61.57275391 219.59863281 C-61.92504919 206.72907054 -62.0623788 193.87429056 -62 181 C-43.51517139 171.75758569 -20.66379689 180.65560339 0 181 C0 121.27 0 61.54 0 0 Z " fill="#ACA6A3" transform="translate(760,426)"/>
<path d="M0 0 C0.82285396 0.00341748 1.64570791 0.00683497 2.49349684 0.01035601 C3.43948808 0.01184836 4.38547933 0.0133407 5.36013699 0.01487827 C6.93743821 0.02508396 6.93743821 0.02508396 8.5466041 0.03549582 C9.65410121 0.03872495 10.76159833 0.04195407 11.90265596 0.04528105 C15.64467779 0.05742508 19.38662867 0.07678335 23.12862009 0.09605795 C25.79868383 0.10619345 28.46874625 0.11593218 31.13881296 0.12517172 C36.9032144 0.14591521 42.66759088 0.17034635 48.43196672 0.19725233 C56.76637949 0.23614902 65.10080709 0.26953052 73.43524878 0.30154759 C86.95594093 0.35363845 100.47661046 0.41021597 113.99727243 0.46959311 C127.13463326 0.52727739 140.27200019 0.58286222 153.40938181 0.63560873 C154.21859488 0.63885845 155.02780796 0.64210817 155.86154265 0.64545637 C159.92095519 0.66174556 163.98036789 0.67799332 168.03978068 0.69422048 C201.73926241 0.82898496 235.43870997 0.97102158 269.13814157 1.11778647 C268.80814157 2.43778647 268.47814157 3.75778647 268.13814157 5.11778647 C268.13814157 4.12778647 268.13814157 3.13778647 268.13814157 2.11778647 C179.36814157 2.11778647 90.59814157 2.11778647 -0.86185843 2.11778647 C-0.86185843 10.69778647 -0.86185843 19.27778647 -0.86185843 28.11778647 C-1.19185843 28.11778647 -1.52185843 28.11778647 -1.86185843 28.11778647 C-2.05767189 23.63894208 -2.24212203 19.15970221 -2.42435843 14.68028647 C-2.48043265 13.40089194 -2.53650687 12.1214974 -2.5942803 10.80333334 C-2.64262015 9.58839194 -2.69095999 8.37345053 -2.74076468 7.12169272 C-2.78789603 5.99577719 -2.83502737 4.86986166 -2.88358694 3.70982748 C-2.8540018 0.18055228 -2.8540018 0.18055228 0 0 Z " fill="#342220" transform="translate(280.86185842752457,425.88221353292465)"/>
<path d="M0 0 C10.56 0 21.12 0 32 0 C32 9.9 32 19.8 32 30 C21.44 30 10.88 30 0 30 C0 20.1 0 10.2 0 0 Z M2 1 C2 9.91 2 18.82 2 28 C11.24 28 20.48 28 30 28 C30 19.09 30 10.18 30 1 C20.76 1 11.52 1 2 1 Z " fill="#451E1A" transform="translate(247,699)"/>
<path d="M0 0 C10.23 0 20.46 0 31 0 C31 0.33 31 0.66 31 1 C21.43 1 11.86 1 2 1 C2 9.91 2 18.82 2 28 C20.81 28 39.62 28 59 28 C57 30 57 30 54.59555054 30.24050903 C53.08331406 30.2338472 53.08331406 30.2338472 51.54052734 30.22705078 C50.39949554 30.22689972 49.25846375 30.22674866 48.08285522 30.22659302 C46.22813095 30.21110916 46.22813095 30.21110916 44.3359375 30.1953125 C43.07359283 30.1924826 41.81124817 30.18965271 40.51065063 30.18673706 C37.15353056 30.17742131 33.79668088 30.15944835 30.43963623 30.1373291 C27.01446921 30.11687551 23.58927344 30.10762688 20.1640625 30.09765625 C13.44255561 30.07726333 6.72152356 30.03811828 0 30 C0 20.1 0 10.2 0 0 Z " fill="#53170B" transform="translate(247,427)"/>
<path d="M0 0 C19.8 0 39.6 0 60 0 C60 10.23 60 20.46 60 31 C59.34 31 58.68 31 58 31 C58 21.43 58 11.86 58 2 C53.6378125 2.2784375 53.6378125 2.2784375 49.1875 2.5625 C33.13358307 3.42732322 17.05162461 2.6034754 1 2 C0.67 1.34 0.34 0.68 0 0 Z " fill="#FAEDAA" transform="translate(246,457)"/>
<path d="M0 0 C10.56 0 21.12 0 32 0 C32 10.23 32 20.46 32 31 C21.44 31 10.88 31 0 31 C0 20.77 0 10.54 0 0 Z M1 1 C1.33 10.24 1.66 19.48 2 29 C11.57 29 21.14 29 31 29 C31 19.76 31 10.52 31 1 C21.1 1 11.2 1 1 1 Z " fill="#F5C166" transform="translate(247,668)"/>
<path d="M0 0 C0.33 0 0.66 0 1 0 C1 1.65 1 3.3 1 5 C1.66 5.33 2.32 5.66 3 6 C2.83628906 6.69125977 2.67257813 7.38251953 2.50390625 8.09472656 C1.9493338 11.29211615 1.90439443 14.23910945 1.9375 17.484375 C1.94587891 18.7935791 1.95425781 20.1027832 1.96289062 21.45166016 C1.96909424 22.15091614 1.97529785 22.85017212 1.98168945 23.57061768 C2.10513355 38.26334559 1.88429406 52.93735847 1.5 67.625 C1.47599121 68.54583374 1.45198242 69.46666748 1.42724609 70.41540527 C1.29056486 75.61045434 1.14618546 80.80519523 1 86 C10.24 86 19.48 86 29 86 C29 86.66 29 87.32 29 88 C19.1 88 9.2 88 -1 88 C-1.06078262 69.75761565 -0.83686949 51.52815383 -0.53643799 33.28918457 C-0.47476284 29.52028521 -0.41522042 25.75135213 -0.35546875 21.98242188 C-0.23900084 14.65491442 -0.12027343 7.32744609 0 0 Z " fill="#FCE5A2" transform="translate(218,551)"/>
<path d="M0 0 C9.9 0 19.8 0 30 0 C30 9.9 30 19.8 30 30 C20.1 30 10.2 30 0 30 C0 20.1 0 10.2 0 0 Z M1 1 C1 9.91 1 18.82 1 28 C9.91 28 18.82 28 28 28 C28 19.09 28 10.18 28 1 C19.09 1 10.18 1 1 1 Z " fill="#3D1816" transform="translate(551,699)"/>
<path d="M0 0 C1.34905313 0.04232195 2.69793464 0.0903437 4.04663086 0.14282227 C5.10991859 0.17823875 5.10991859 0.17823875 6.19468689 0.21437073 C8.46714482 0.29117497 10.73927617 0.37512626 13.01147461 0.45922852 C14.5485678 0.51243248 16.08567711 0.56517297 17.62280273 0.61743164 C21.39846108 0.74593865 25.17359359 0.88409544 28.94897461 1.02172852 C28.94897461 11.25172852 28.94897461 21.48172852 28.94897461 32.02172852 C28.61897461 32.02172852 28.28897461 32.02172852 27.94897461 32.02172852 C27.94897461 22.12172852 27.94897461 12.22172852 27.94897461 2.02172852 C18.04897461 2.02172852 8.14897461 2.02172852 -2.05102539 2.02172852 C-2.05102539 11.59172852 -2.05102539 21.16172852 -2.05102539 31.02172852 C7.51897461 31.02172852 17.08897461 31.02172852 26.94897461 31.02172852 C26.94897461 31.35172852 26.94897461 31.68172852 26.94897461 32.02172852 C17.37897461 32.02172852 7.80897461 32.02172852 -2.05102539 32.02172852 C-2.05102539 41.59172852 -2.05102539 51.16172852 -2.05102539 61.02172852 C-2.38102539 61.02172852 -2.71102539 61.02172852 -3.05102539 61.02172852 C-3.1968914 55.69141196 -3.33909159 50.36101292 -3.47827148 45.03051758 C-3.52583045 43.22710703 -3.57429487 41.42372007 -3.6237793 39.62036133 C-3.89626844 29.66616596 -4.10482706 19.71423461 -4.14477539 9.75610352 C-4.15126099 8.89285461 -4.15774658 8.02960571 -4.16442871 7.14019775 C-4.16598961 5.10035832 -4.11408858 3.06059349 -4.05102539 1.02172852 C-3.05102539 0.02172852 -3.05102539 0.02172852 0 0 Z " fill="#AF8C63" transform="translate(702.051025390625,605.978271484375)"/>
<path d="M0 0 C0.99 0.66 1.98 1.32 3 2 C2.85769192 3.41702513 2.71099254 4.8336096 2.5625 6.25 C2.48128906 7.03890625 2.40007812 7.8278125 2.31640625 8.640625 C2.02365007 10.82364639 1.57935581 12.8773182 1 15 C2.32 15.33 3.64 15.66 5 16 C1.3298994 17.15792475 -2.12275604 17.11388663 -5.953125 17.09765625 C-6.61334656 17.0962413 -7.27356812 17.09482635 -7.95379639 17.09336853 C-10.05257794 17.08779245 -12.15125095 17.07524447 -14.25 17.0625 C-15.67708179 17.0574819 -17.10416525 17.05291954 -18.53125 17.04882812 C-22.02086832 17.03783088 -25.51042356 17.0205828 -29 17 C-29 16.67 -29 16.34 -29 16 C-19.43 16 -9.86 16 0 16 C0 10.72 0 5.44 0 0 Z " fill="#FEE896" transform="translate(247,651)"/>
<path d="M0 0 C9.24 0 18.48 0 28 0 C26.68 0.33 25.36 0.66 24 1 C24 1.66 24 2.32 24 3 C23.01 3 22.02 3 21 3 C21 2.34 21 1.68 21 1 C18.24968413 1.14111883 15.49984582 1.28771165 12.75 1.4375 C11.97269531 1.47681641 11.19539062 1.51613281 10.39453125 1.55664062 C9.26337891 1.61948242 9.26337891 1.61948242 8.109375 1.68359375 C7.07248535 1.73858032 7.07248535 1.73858032 6.01464844 1.79467773 C3.93371671 2.00675524 2.01427578 2.44508677 0 3 C0 2.01 0 1.02 0 0 Z " fill="#F8E5A8" transform="translate(218,398)"/>
</svg>
